<svg xmlns="http://www.w3.org/2000/svg" xmlns:xlink="http://www.w3.org/1999/xlink" preserveAspectRatio="xMidYMid meet" version="1.0" viewBox="0.0 0.0 346.6 405.6" zoomAndPan="magnify" style="fill: rgb(0, 0, 0);" original_string_length="40942" width="403.4298000752906px" height="472.0987022157657px"><g id="__id0_shulcfvcy7"><path d="M17.3,187.8L17.3,187.8l0.1,45.3h-0.1V187.8z M46,233.1L46,233.1l0.1-68H46V233.1z M13.2,233.1L13.2,233.1 l0.1-45.3h-0.1V233.1z M25.5,233.1L25.5,233.1l0.1-45.3h-0.1V233.1z M41.9,233.1L41.9,233.1l0.1-68h-0.1V233.1z M17.3,93.1 L17.3,93.1l0.1-2.7h-0.1V93.1z M37.8,233.1L37.8,233.1l0.1-68h-0.1V233.1z M33.7,233.1L33.7,233.1l0.1-68h-0.1V233.1z M29.6,233.1 L29.6,233.1l0.1-68h-0.1V233.1z M21.4,233.1L21.4,233.1l0.1-45.3h-0.1V233.1z M13.2,93.1L13.2,93.1l0.1-2.7h-0.1V93.1z M13.2,167.9 L13.2,167.9l0.1-2.7h-0.1V167.9z M25.5,93.1L25.5,93.1l0.1-2.7h-0.1V93.1z M9.1,233.1L9.1,233.1l0.1-68.4c0,0-0.1,0-0.1,0V233.1z M25.5,167.9L25.5,167.9l0.1-2.7h-0.1V167.9z M21.4,93.1L21.4,93.1l0.1-2.7h-0.1V93.1z M17.3,167.9L17.3,167.9l0.1-2.7h-0.1V167.9z M21.4,167.9L21.4,167.9l0.1-2.7h-0.1V167.9z M148.7,233.1L148.7,233.1l0.1-72.2h-0.1V233.1z M87.1,233.1L87.1,233.1l0.1-68h-0.1 V233.1z M99.4,233.1L99.4,233.1l0.1-68.4c0,0-0.1,0-0.1,0V233.1z M95.3,233.1L95.3,233.1l0.1-68h-0.1V233.1z M91.2,233.1L91.2,233.1 l0.1-68h-0.1V233.1z M136.4,231.8L136.4,231.8l0.1-70.9h-0.1V231.8z M140.5,233.1L140.5,233.1l0.1-72.2h-0.1V233.1z M152.9,66.4 v166.7h-0.1L152.9,66.4l-4.1,0.1v30.9h-0.1V66.5h-4v30.9h-0.1V66.5h-4v30.9h-0.1V66.5h-4v30.9h-0.1V66.5h-4v30.9h-0.1V66.5h-4v30.9 h-0.1V66.5h-4v166.6h4v-72.2h0.1v72.2h4v-72.2h0.1v72.2h3.6v0.1h-30.5v-0.1h2.2V66.5h-4v166.6h-0.1V66.5h-4v27.1c0,0-0.1,0-0.1,0 V66.5h-4v26.6h-0.1V66.5h-4v26.6h-0.1V66.5h-4v26.6h-0.1V66.5h-4v26.6H83V66.5h-4v26.6h-0.1V66.5h-4v26.6h-0.1V66.5h-4v26.6h-0.1 V66.5h-4v26.6h-0.1V66.5h-4v26.6h-0.1V66.5h-4v26.6h-0.1V66.5h-4v26.6h-0.1V66.5h-4v26.6h-0.1V66.5h-4v26.6H46V66.5h-4v26.6h-0.1 V66.5h-4v26.6h-0.1V66.5h-4v26.6h-0.1V66.5h-4v26.6h-0.1V66.5h-4v4h-0.1v-4h-4v4h-0.1v-4h-4v4h-0.1v-4h-4v4h-0.1v-4h-4v27.1 c0,0-0.1,0-0.1,0V66.5h-4v166.6H5V66.4H152.9z M111.7,66.5h-4v166.6h4V66.5z M115.8,66.5h-4v166.6h4V66.5z M119.9,66.5h-4v166.6h4 V66.5z M124.1,66.5h-4v166.6h4V66.5z M144.6,233.1L144.6,233.1l0.1-72.2h-0.1V233.1z M74.8,233.1L74.8,233.1l0.1-68h-0.1V233.1z M58.4,233.1L58.4,233.1l0.1-68h-0.1V233.1z M66.6,233.1L66.6,233.1l0.1-68h-0.1V233.1z M62.5,233.1L62.5,233.1l0.1-68h-0.1V233.1z M83,233.1L83,233.1l0.1-68H83V233.1z M54.3,233.1L54.3,233.1l0.1-68h-0.1V233.1z M70.7,233.1L70.7,233.1l0.1-68h-0.1V233.1z M78.9,233.1L78.9,233.1l0.1-68h-0.1V233.1z M50.1,233.1L50.1,233.1l0.1-68h-0.1V233.1z M33.7,302.9L33.7,302.9l0.1-69.7h-0.1V302.9 z M37.8,302.9L37.8,302.9l0.1-69.7h-0.1V302.9z M41.9,302.9L41.9,302.9l0.1-69.7h-0.1V302.9z M46,302.9L46,302.9l0.1-69.7H46V302.9z M50.1,302.9L50.1,302.9l0.1-69.7h-0.1V302.9z M54.3,302.9L54.3,302.9l0.1-69.7h-0.1V302.9z M58.4,302.9L58.4,302.9l0.1-69.7h-0.1 V302.9z M62.5,302.9L62.5,302.9l0.1-69.7h-0.1V302.9z M66.6,302.9L66.6,302.9l0.1-69.7h-0.1V302.9z M70.7,302.9L70.7,302.9l0.1-69.7 h-0.1V302.9z M74.8,302.9L74.8,302.9l0.1-69.7h-0.1V302.9z M78.9,302.9L78.9,302.9l0.1-69.7h-0.1V302.9z M83,302.9L83,302.9 l0.1-69.7H83V302.9z M87.1,302.9L87.1,302.9l0.1-69.7h-0.1V302.9z" style="fill: rgb(245, 239, 230);"/></g><g id="__id1_shulcfvcy7"><path d="M78.6,399.4h0.1v3.1h-0.1V399.4z M87.9,402.5h0.1v-3.1h-0.1V402.5z M143.6,307.3v10.4h9.2v0.1h-9.2v10.4h9.2 v0.1h-9.2v10.4h9.2v0.1h-9.2v10.4h9.2v0.1h-9.2v10.4h9.2v0.1h-9.2v10.4h9.2v0.1h-9.2v7.8h-0.1v-7.8h-9.1v7.8h-0.1v-7.8h-9.1v7.8H125 v-7.8h-9.1v7.8h-0.1v-7.8h-9.1v10.4h2.2v0.1h-2.2v10.4h2.2v0.1h-2.2v10.5h-0.1V392h-9.1v10.5h-0.1V392h-3.8 c-0.1-0.1-0.1-0.1-0.2-0.1h3.9v-10.4h-5.6c0,0,0-0.1,0-0.1h5.6v-10.4h-9.1v1.9c-0.1-0.1-0.1-0.1-0.1-0.2v-1.8h-3.1 c-0.3,0-0.5-0.1-0.8-0.1s-0.5,0-0.8,0.1h-4.5v3.7c0,0.1-0.1,0.2-0.1,0.3v-3.9h-9.1v10.4h7.1c0,0,0,0.1,0,0.1h-7v10.4h5.4 c-0.1,0-0.1,0.1-0.2,0.1h-5.2v10.5h-0.1V392h-9.1v10.5h-0.1V392H51v10.5h-0.1V392h-9.1v10.5h-0.1V392h-9.1v10.5h-0.1V392h-9.1v10.5 H23V392h-9.1v10.5h-0.1V392H4.6v-0.1h9.2v-10.4H4.6v-0.1h9.2v-10.4H4.6v-0.1h9.2v-10.4H4.6v-0.1h9.2v-10.4H4.6v-0.1h9.2v-10.4H4.6 v-0.1h9.2v-10.4H4.6v-0.1h9.2v-0.9h0.1v0.9H23v-0.9h0.1v0.9h9.1v-0.9h0.1v0.9h9.1v-0.9h0.1v0.9h9.1v-0.9H51v0.9h9.1v-0.9h0.1v0.9 h9.1v-0.9h0.1v0.9h9.1v-0.9h0.1v0.9h9.1v-0.9h0.1v0.9h9.1v-10.4h-7.9v-0.1h7.9v-10.4h-7.9v-0.1h7.9v-10.5h0.1v10.5h9.1v-10.4h-0.6 v-0.1h30.5v0.1h-1.9v10.4h9.1v-10.5h0.1v10.5h9.2v0.1H143.6z M23,381.4h-9.1v10.4H23V381.4z M23,370.8h-9.1v10.4H23V370.8z M23,360.3h-9.1v10.4H23V360.3z M23,349.7h-9.1v10.4H23V349.7z M23,339.1h-9.1v10.4H23V339.1z M23,328.5h-9.1v10.4H23V328.5z M32.3,381.4h-9.1v10.4h9.1V381.4z M32.3,370.8h-9.1v10.4h9.1V370.8z M32.3,360.3h-9.1v10.4h9.1V360.3z M32.3,349.7h-9.1v10.4h9.1 V349.7z M32.3,339.1h-9.1v10.4h9.1V339.1z M32.3,328.5h-9.1v10.4h9.1V328.5z M41.6,381.4h-9.1v10.4h9.1V381.4z M41.6,370.8h-9.1 v10.4h9.1V370.8z M41.6,360.3h-9.1v10.4h9.1V360.3z M41.6,349.7h-9.1v10.4h9.1V349.7z M41.6,339.1h-9.1v10.4h9.1V339.1z M41.6,328.5 h-9.1v10.4h9.1V328.5z M50.8,381.4h-9.1v10.4h9.1V381.4z M50.8,370.8h-9.1v10.4h9.1V370.8z M50.8,360.3h-9.1v10.4h9.1V360.3z M50.8,349.7h-9.1v10.4h9.1V349.7z M50.8,339.1h-9.1v10.4h9.1V339.1z M50.8,328.5h-9.1v10.4h9.1V328.5z M60.1,381.4H51v10.4h9.1 V381.4z M60.1,370.8H51v10.4h9.1V370.8z M60.1,360.3H51v10.4h9.1V360.3z M60.1,349.7H51v10.4h9.1V349.7z M60.1,339.1H51v10.4h9.1 V339.1z M60.1,328.5H51v10.4h9.1V328.5z M69.4,381.4h-9.1v10.4h9.1V381.4z M69.4,370.8h-9.1v10.4h9.1V370.8z M69.4,360.3h-9.1v10.4 h9.1V360.3z M69.4,349.7h-9.1v10.4h9.1V349.7z M69.4,339.1h-9.1v10.4h9.1V339.1z M69.4,328.5h-9.1v10.4h9.1V328.5z M78.6,360.3h-9.1 v10.4h9.1V360.3z M78.6,349.7h-9.1v10.4h9.1V349.7z M78.6,339.1h-9.1v10.4h9.1V339.1z M78.6,328.5h-9.1v10.4h9.1V328.5z M87.9,360.3 h-9.1v10.4h9.1V360.3z M87.9,349.7h-9.1v10.4h9.1V349.7z M87.9,339.1h-9.1v10.4h9.1V339.1z M87.9,328.5h-9.1v10.4h9.1V328.5z M97.2,360.3h-9.1v10.4h9.1V360.3z M97.2,349.7h-9.1v10.4h9.1V349.7z M97.2,339.1h-9.1v10.4h9.1V339.1z M97.2,328.5h-9.1v10.4h9.1 V328.5z M106.4,381.4h-9.1v10.4h9.1V381.4z M106.4,370.8h-9.1v10.4h9.1V370.8z M106.4,360.3h-9.1v10.4h9.1V360.3z M106.4,349.7h-9.1 v10.4h9.1V349.7z M106.4,339.1h-9.1v10.4h9.1V339.1z M106.4,328.5h-9.1v10.4h9.1V328.5z M106.4,317.9h-9.1v10.4h9.1V317.9z M106.4,307.3h-9.1v10.4h9.1V307.3z M115.7,360.3h-9.1v10.4h9.1V360.3z M115.7,349.7h-9.1v10.4h9.1V349.7z M115.7,339.1h-9.1v10.4 h9.1V339.1z M115.7,328.5h-9.1v10.4h9.1V328.5z M115.7,317.9h-9.1v10.4h9.1V317.9z M115.7,307.3h-9.1v10.4h9.1V307.3z M115.7,296.7 h-9.1v10.4h9.1V296.7z M125,360.3h-9.1v10.4h9.1V360.3z M125,349.7h-9.1v10.4h9.1V349.7z M125,339.1h-9.1v10.4h9.1V339.1z M125,328.5h-9.1v10.4h9.1V328.5z M125,317.9h-9.1v10.4h9.1V317.9z M125,307.3h-9.1v10.4h9.1V307.3z M125,296.7h-9.1v10.4h9.1V296.7 z M134.2,360.3h-9.1v10.4h9.1V360.3z M134.2,349.7h-9.1v10.4h9.1V349.7z M134.2,339.1h-9.1v10.4h9.1V339.1z M134.2,328.5h-9.1v10.4 h9.1V328.5z M134.2,317.9h-9.1v10.4h9.1V317.9z M134.2,307.3h-9.1v10.4h9.1V307.3z M134.2,296.7h-9.1v10.4h9.1V296.7z M143.5,360.3 h-9.1v10.4h9.1V360.3z M143.5,349.7h-9.1v10.4h9.1V349.7z M143.5,339.1h-9.1v10.4h9.1V339.1z M143.5,328.5h-9.1v10.4h9.1V328.5z M143.5,317.9h-9.1v10.4h9.1V317.9z M143.5,307.3h-9.1v10.4h9.1V307.3z" style="fill: rgb(218, 218, 218);"/></g><g id="__id2_shulcfvcy7"><path d="M57.1,329.6L33.8,363c-0.4-0.2-0.9-0.4-1.4-0.4c-0.5,0-1,0.2-1.5,0.4L7.7,329.6l-0.4,0.3l23.2,33.4 c-0.7,0.5-1.1,1.4-1.1,2.3c0,0.9,0.4,1.6,1,2.2L7.2,399.2l0.4,0.3L30.7,368c0.5,0.3,1,0.5,1.6,0.5c0.6,0,1.1-0.2,1.5-0.4l23.2,31.5 l0.4-0.3l-23.2-31.5c0.6-0.5,1-1.3,1-2.2c0-0.9-0.5-1.8-1.1-2.3l23.3-33.3L57.1,329.6z M34.8,365.5c0,1.4-1.1,2.5-2.5,2.5 c-1.4,0-2.5-1.1-2.5-2.5s1.1-2.5,2.5-2.5C33.7,363.1,34.8,364.2,34.8,365.5z M182.3,346.1v-7.3h-28.5v7.3V372v28h28h0.5h67.1v-28.5 h-67.1V346.1z M154.4,339.3h27.5v6.8h-27.5V339.3z M181.8,371.5h-27.5v-24.9h27.5V371.5z M154.4,399.5V372h27.5v27.5H154.4z M182.3,372h66.6v27.5h-66.6V372z M339.6,109.7c0.7-0.5,1.2-1.3,1.2-2.2v-2.3h0c0-3.2-2.6-5.8-5.8-5.8h-29.2c-3.2,0-5.8,2.6-5.8,5.8 v2.3c0,1.2,0.8,2.2,1.9,2.5c-1.1,0.6-1.9,1.7-1.9,3v32.3c0,1.4,0.9,2.6,2.1,3.1c-1.2,0.5-2.1,1.7-2.1,3.1v32.3c0,1.3,0.8,2.5,1.9,3 c-1.1,0.3-1.9,1.3-1.9,2.5v2.3c0,3.2,2.6,5.8,5.8,5.8H335c3.2,0,5.8-2.6,5.8-5.8v-2.3h0c0-0.9-0.5-1.7-1.2-2.2 c0.7-0.2,1.2-0.8,1.2-1.5v-74.5C340.8,110.4,340.3,109.8,339.6,109.7z M300.6,107.5v-2.3c0-2.9,2.4-5.3,5.3-5.3H335 c1.4,0,2.7,0.5,3.7,1.5c1,1,1.5,2.3,1.5,3.7v2.3c0,1.2-1,2.1-2.1,2.1h-3.9h-31.6C301.5,109.6,300.6,108.7,300.6,107.5z M336.3,146.2 c0,1.1-0.9,2-2,2h-3.9c-2.4,0-4.4-2-4.4-4.4v-29.2c0-2.4,2-4.4,4.4-4.4h3.9c1.1,0,2,0.9,2,2V146.2z M335.4,149 C335.4,149,335.4,149,335.4,149c0.5,0.4,0.9,1,0.9,1.6v34.1c0,1.1-0.9,2-2,2h-3.9c-2.4,0-4.4-2-4.4-4.4v-29.2c0-2.4,2-4.4,4.4-4.4 h3.9C334.7,148.7,335,148.8,335.4,149C335.3,149,335.4,149,335.4,149z M300.6,145.3V113c0-1.6,1.3-2.9,2.9-2.9h24.8 c-0.2,0.1-0.4,0.2-0.6,0.3c0,0,0,0,0,0c-0.2,0.2-0.4,0.3-0.6,0.5c-0.1,0.1-0.1,0.1-0.2,0.2c-0.2,0.2-0.3,0.3-0.4,0.5 c0,0.1-0.1,0.1-0.1,0.2c-0.2,0.2-0.3,0.5-0.4,0.7c0,0.1,0,0.1-0.1,0.2c-0.1,0.2-0.2,0.4-0.2,0.7c0,0.1,0,0.2-0.1,0.2 c-0.1,0.3-0.1,0.6-0.1,0.9v29.2c0,0.3,0,0.6,0.1,0.9c0,0.1,0,0.2,0.1,0.2c0.1,0.2,0.1,0.4,0.2,0.7c0,0.1,0,0.1,0.1,0.2 c0.1,0.3,0.2,0.5,0.4,0.7c0,0.1,0.1,0.1,0.1,0.2c0.1,0.2,0.3,0.4,0.4,0.5c0.1,0.1,0.1,0.1,0.2,0.2c0.2,0.2,0.4,0.4,0.6,0.5 c0,0,0,0,0,0c0.2,0.1,0.4,0.2,0.6,0.3h-24.8C301.9,148.2,300.6,146.9,300.6,145.3z M300.6,183.8v-32.3c0-1.6,1.3-2.9,2.9-2.9h24.8 c-0.2,0.1-0.4,0.2-0.6,0.3c0,0,0,0,0,0c-0.2,0.2-0.4,0.3-0.6,0.5c-0.1,0.1-0.1,0.1-0.2,0.2c-0.2,0.2-0.3,0.3-0.4,0.5 c0,0.1-0.1,0.1-0.1,0.2c-0.2,0.2-0.3,0.5-0.4,0.7c0,0.1,0,0.1-0.1,0.2c-0.1,0.2-0.2,0.4-0.2,0.7c0,0.1,0,0.2-0.1,0.2 c-0.1,0.3-0.1,0.6-0.1,0.9v29.2c0,0.3,0,0.6,0.1,0.9c0,0.1,0,0.2,0.1,0.2c0.1,0.2,0.1,0.4,0.2,0.7c0,0.1,0,0.1,0.1,0.2 c0.1,0.3,0.2,0.5,0.4,0.7c0,0.1,0.1,0.1,0.1,0.2c0.1,0.2,0.3,0.4,0.4,0.5c0.1,0.1,0.1,0.1,0.2,0.2c0.2,0.2,0.4,0.4,0.6,0.5 c0,0,0,0,0,0c0.2,0.1,0.4,0.2,0.6,0.3h-24.8C301.9,186.7,300.6,185.4,300.6,183.8z M340.3,189.3v2.3c0,2.9-2.4,5.3-5.3,5.3h-29.2 c-2.9,0-5.3-2.4-5.3-5.3v-2.3c0-1.2,1-2.1,2.1-2.1h0.8h27h3.9h0v0h3.9C339.4,187.2,340.3,188.2,340.3,189.3z M340.3,185.7 c0,0.6-0.5,1.1-1.1,1.1h-1.1c0,0,0,0,0,0h-2.4c0,0,0.1-0.1,0.1-0.1c0.1-0.1,0.2-0.1,0.2-0.2c0-0.1,0.1-0.1,0.1-0.2 c0.1-0.1,0.1-0.2,0.2-0.3c0-0.1,0.1-0.1,0.1-0.2c0-0.1,0.1-0.2,0.1-0.3c0-0.1,0-0.1,0.1-0.2c0-0.2,0.1-0.4,0.1-0.5c0,0,0,0,0,0v0 v-34.1c0-0.2,0-0.4-0.1-0.6c0-0.1,0-0.1,0-0.2c-0.1-0.2-0.1-0.3-0.2-0.5c0,0,0-0.1-0.1-0.1c-0.1-0.2-0.2-0.3-0.4-0.5 c0,0-0.1-0.1-0.1-0.1c-0.1-0.1-0.3-0.2-0.4-0.3c0,0-0.1,0-0.1-0.1c0,0,0.1,0,0.1-0.1c0.1-0.1,0.3-0.2,0.4-0.3c0,0,0.1-0.1,0.1-0.1 c0.1-0.1,0.3-0.3,0.4-0.5c0,0,0-0.1,0.1-0.1c0.1-0.1,0.2-0.3,0.2-0.5c0-0.1,0-0.1,0-0.2c0.1-0.2,0.1-0.4,0.1-0.6v-34.1v0 c0,0,0,0,0,0c0-0.2,0-0.4-0.1-0.5c0-0.1,0-0.1-0.1-0.2c0-0.1-0.1-0.2-0.1-0.3c0-0.1-0.1-0.1-0.1-0.2c-0.1-0.1-0.1-0.2-0.2-0.3 c0-0.1-0.1-0.1-0.1-0.2c-0.1-0.1-0.2-0.2-0.2-0.2c0,0-0.1-0.1-0.1-0.1h2.4h1.1c0.6,0,1.1,0.5,1.1,1.1V185.7z M270.1,116.4h-42.9v64 h42.9V116.4z M269.6,179.9h-41.9v-63h41.9V179.9z M174.4,114.2h-20.4v68.3h20.4V114.2z M173.9,181.9h-19.4v-67.3h19.4V181.9z M166.1,119.6h-3.9V177h3.9V119.6z M165.6,176.5h-2.9v-56.5h2.9V176.5z M187.5,301.5L187.5,301.5l-29.5,0v32.7h33.2v-32.7h0v0H187.5 z M188,302h2.6v31.7H188V302z M158.5,302h29v31.7h-29V302z M162.1,357.7c2.3,0,4.2-1.9,4.2-4.2c0-2.3-1.9-4.2-4.2-4.2 s-4.2,1.9-4.2,4.2C158,355.8,159.8,357.7,162.1,357.7z M162.1,349.8c2,0,3.7,1.7,3.7,3.7s-1.7,3.7-3.7,3.7s-3.7-1.7-3.7-3.7 S160.1,349.8,162.1,349.8z M162.1,368.8c2.3,0,4.2-1.9,4.2-4.2c0-2.3-1.9-4.2-4.2-4.2s-4.2,1.9-4.2,4.2 C158,366.9,159.8,368.8,162.1,368.8z M162.1,360.9c2,0,3.7,1.7,3.7,3.7s-1.7,3.7-3.7,3.7s-3.7-1.7-3.7-3.7S160.1,360.9,162.1,360.9z M172.8,357.7c2.3,0,4.2-1.9,4.2-4.2c0-2.3-1.9-4.2-4.2-4.2s-4.2,1.9-4.2,4.2C168.6,355.8,170.5,357.7,172.8,357.7z M172.8,349.8 c2,0,3.7,1.7,3.7,3.7s-1.7,3.7-3.7,3.7c-2,0-3.7-1.7-3.7-3.7S170.7,349.8,172.8,349.8z M172.8,368.8c2.3,0,4.2-1.9,4.2-4.2 c0-2.3-1.9-4.2-4.2-4.2s-4.2,1.9-4.2,4.2C168.6,366.9,170.5,368.8,172.8,368.8z M172.8,360.9c2,0,3.7,1.7,3.7,3.7s-1.7,3.7-3.7,3.7 c-2,0-3.7-1.7-3.7-3.7S170.7,360.9,172.8,360.9z M179.4,355.9c0.6,0,1-0.5,1-1s-0.5-1-1-1s-1,0.5-1,1S178.8,355.9,179.4,355.9z M179.4,354.3c0.3,0,0.5,0.2,0.5,0.5s-0.2,0.5-0.5,0.5s-0.5-0.2-0.5-0.5S179.1,354.3,179.4,354.3z M179.4,358.5c0.6,0,1-0.5,1-1 s-0.5-1-1-1s-1,0.5-1,1S178.8,358.5,179.4,358.5z M179.4,356.9c0.3,0,0.5,0.2,0.5,0.5s-0.2,0.5-0.5,0.5s-0.5-0.2-0.5-0.5 S179.1,356.9,179.4,356.9z M179.4,361c0.6,0,1-0.5,1-1s-0.5-1-1-1s-1,0.5-1,1S178.8,361,179.4,361z M179.4,359.5 c0.3,0,0.5,0.2,0.5,0.5s-0.2,0.5-0.5,0.5s-0.5-0.2-0.5-0.5S179.1,359.5,179.4,359.5z M179.4,363.6c0.6,0,1-0.5,1-1s-0.5-1-1-1 s-1,0.5-1,1S178.8,363.6,179.4,363.6z M179.4,362.1c0.3,0,0.5,0.2,0.5,0.5s-0.2,0.5-0.5,0.5s-0.5-0.2-0.5-0.5 S179.1,362.1,179.4,362.1z M236.1,374.9h-21c-0.9,0-1.6,0.7-1.6,1.6v18.5c0,0.9,0.7,1.6,1.6,1.6h21c0.9,0,1.6-0.7,1.6-1.6v-18.5 C237.8,375.6,237,374.9,236.1,374.9z M237.3,394.9c0,0.6-0.5,1.1-1.1,1.1h-21c-0.6,0-1.1-0.5-1.1-1.1v-18.5c0-0.6,0.5-1.1,1.1-1.1 h21c0.6,0,1.1,0.5,1.1,1.1V394.9z M225.6,381.6c-1.3,0-2.4,1.1-2.4,2.4s1.1,2.4,2.4,2.4c1.3,0,2.4-1.1,2.4-2.4 S227,381.6,225.6,381.6z M225.6,385.8c-1,0-1.9-0.8-1.9-1.9s0.8-1.9,1.9-1.9c1,0,1.9,0.8,1.9,1.9S226.7,385.8,225.6,385.8z M279.1,241.2c-2.8-2.8-5.7-4.7-7.9-6.1c-0.5-0.3-1.1-0.3-1.6,0.2l-0.7,0.7c-0.3,0.3-0.4,0.6-0.4,1c0,0.2,0.1,0.4,0.3,0.6l-8.3,8.3 c-3.3-0.9-6.7-0.9-10,0l-7.5-7.5c0.1-0.2,0.2-0.4,0.3-0.6c0-0.4-0.1-0.7-0.4-1h0l-0.7-0.7c-0.4-0.4-1.1-0.5-1.6-0.2 c-2.1,1.4-5.1,3.3-7.8,6.1c-2.8,2.8-4.7,5.7-6.1,7.9c-0.3,0.5-0.3,1.1,0.2,1.6l0.7,0.7c0.2,0.2,0.5,0.4,0.9,0.4c0,0,0.1,0,0.1,0 c0.2,0,0.4-0.1,0.6-0.3l7.5,7.5c-0.9,3.3-0.9,6.7,0,10l-8.3,8.3c-0.2-0.1-0.4-0.2-0.6-0.3c-0.3,0-0.6,0-0.8,0.2l0,0l-0.9,0.9 c-0.4,0.4-0.5,1.1-0.2,1.6c1.4,2.1,3.3,5.1,6.1,7.8c2.8,2.8,5.7,4.7,7.9,6.1c0.2,0.1,0.4,0.2,0.7,0.2c0.3,0,0.6-0.1,0.9-0.4l0.7-0.7 c0.3-0.3,0.4-0.6,0.4-1c0-0.2-0.1-0.4-0.3-0.6l8.3-8.3c1.6,0.4,3.3,0.7,5,0.7c1.7,0,3.4-0.2,5-0.7l7.5,7.5c-0.1,0.2-0.2,0.4-0.3,0.6 c0,0.4,0.1,0.7,0.4,1l0.7,0.7c0.2,0.2,0.6,0.4,0.9,0.4c0.2,0,0.5-0.1,0.7-0.2c2.1-1.4,5.1-3.3,7.8-6.1c2.8-2.8,4.7-5.7,6.1-7.9 c0.3-0.5,0.3-1.1-0.2-1.6l-0.7-0.7c-0.3-0.3-0.6-0.4-1-0.4c-0.2,0-0.5,0.1-0.6,0.3l-7.5-7.5c0.9-3.3,0.9-6.7,0-10l8.3-8.3 c0.2,0.1,0.4,0.2,0.6,0.3c0,0,0.1,0,0.1,0c0.3,0,0.6-0.1,0.9-0.4v0l0.7-0.7c0.4-0.4,0.5-1.1,0.2-1.6 C283.8,246.9,281.8,244,279.1,241.2z M228.4,252c-0.2,0-0.4-0.1-0.6-0.2l-0.7-0.7c-0.2-0.2-0.3-0.6-0.1-0.9c1.4-2.1,3.3-5,6.1-7.8 c2.7-2.7,5.6-4.7,7.8-6c0.1-0.1,0.3-0.1,0.4-0.1c0.2,0,0.4,0.1,0.5,0.2l0.7,0.7c0.2,0.2,0.2,0.4,0.2,0.6c0,0.2-0.1,0.3-0.2,0.5l0,0 l-0.1,0.1c-2.6,1.7-5.1,3.7-7.3,5.9c0,0,0,0,0,0c0,0,0,0,0,0c-2.3,2.3-4.3,4.8-6,7.4l0,0.1C228.8,251.8,228.7,252,228.4,252z M229.5,251.8c0.3-0.5,0.6-0.9,0.9-1.4c0.1-0.2,0.2-0.4,0.4-0.5c0.3-0.4,0.7-0.9,1-1.3c0.1-0.2,0.3-0.4,0.4-0.6 c0.3-0.4,0.7-0.8,1-1.2c0.2-0.2,0.3-0.4,0.5-0.6c0.5-0.6,1.1-1.2,1.6-1.7c0,0,0.1-0.1,0.1-0.1c0.5-0.5,1-1,1.6-1.5 c0.3-0.2,0.5-0.4,0.8-0.7c0.3-0.3,0.7-0.6,1-0.8c0.3-0.2,0.6-0.5,0.9-0.7c0.3-0.2,0.6-0.5,0.9-0.7c0.3-0.2,0.7-0.5,1-0.7 c0.3-0.2,0.6-0.4,0.9-0.6l7.3,7.3c-0.2,0-0.3,0.1-0.5,0.2c-0.3,0.1-0.6,0.2-0.9,0.3c-0.2,0.1-0.5,0.2-0.7,0.3 c-0.3,0.1-0.7,0.3-1,0.5c-0.3,0.1-0.6,0.3-0.8,0.4c-0.3,0.2-0.6,0.3-0.9,0.5c-0.2,0.1-0.4,0.2-0.5,0.3c-0.4,0.3-0.8,0.6-1.2,0.9 c-0.1,0.1-0.2,0.2-0.4,0.3c-0.4,0.4-0.9,0.8-1.3,1.2c0,0,0,0,0,0c0,0,0,0,0,0c0,0,0,0,0,0c-0.4,0.4-0.8,0.9-1.2,1.3 c-0.1,0.1-0.2,0.2-0.3,0.3c-0.3,0.4-0.6,0.8-0.9,1.3c-0.1,0.2-0.2,0.3-0.3,0.5c-0.2,0.3-0.4,0.6-0.6,1c-0.1,0.2-0.2,0.4-0.3,0.6 c-0.2,0.4-0.4,0.8-0.5,1.2c-0.1,0.2-0.2,0.4-0.3,0.7c-0.1,0.3-0.3,0.7-0.4,1c0,0.1-0.1,0.2-0.1,0.4L229.5,251.8z M241.7,293.2 l-0.7,0.7c-0.2,0.2-0.6,0.3-0.9,0.1c-2.1-1.4-5-3.3-7.8-6.1c-2.7-2.7-4.7-5.6-6-7.8c-0.2-0.3-0.2-0.7,0.1-0.9l0.6-0.6l0,0l0.2-0.2 c0.2-0.2,0.4-0.2,0.6-0.2c0.2,0,0.3,0.1,0.4,0.2l0,0.1l0.1,0.1c1.7,2.6,3.7,5.1,5.9,7.3c2.3,2.3,4.8,4.3,7.4,6l0.1,0.1 c0.2,0.1,0.3,0.3,0.3,0.5C242,292.8,241.9,293,241.7,293.2z M241.8,291.6c-0.5-0.3-1-0.7-1.5-1c-0.1-0.1-0.3-0.2-0.4-0.3 c-0.6-0.4-1.1-0.8-1.7-1.3c-0.1-0.1-0.1-0.1-0.2-0.2c-1.2-1-2.4-2.1-3.5-3.2c-1.1-1.1-2.1-2.3-3.1-3.5c-0.1-0.1-0.2-0.3-0.3-0.4 c-0.4-0.5-0.7-0.9-1.1-1.4c-0.1-0.2-0.2-0.3-0.3-0.5c-0.3-0.5-0.6-0.9-0.9-1.4l8.1-8.1c0,0.1,0.1,0.3,0.1,0.4c0.1,0.3,0.2,0.7,0.4,1 c0.1,0.2,0.2,0.5,0.3,0.7c0.2,0.4,0.3,0.7,0.5,1.1c0.1,0.2,0.2,0.5,0.4,0.7c0.2,0.3,0.4,0.6,0.5,0.9c0.1,0.2,0.2,0.3,0.3,0.5 c0.3,0.4,0.6,0.9,0.9,1.3c0.1,0.1,0.2,0.2,0.3,0.3c0.4,0.4,0.8,0.9,1.2,1.3c0.4,0.4,0.8,0.8,1.3,1.2c0.1,0.1,0.2,0.2,0.4,0.3 c0.4,0.3,0.8,0.6,1.2,0.9c0.2,0.1,0.4,0.2,0.5,0.3c0.3,0.2,0.6,0.4,0.9,0.5c0.3,0.1,0.5,0.3,0.8,0.4c0.3,0.2,0.7,0.3,1.1,0.5 c0.2,0.1,0.5,0.2,0.7,0.3c0.3,0.1,0.6,0.2,1,0.3c0.1,0,0.3,0.1,0.4,0.1L241.8,291.6z M282.6,277.5 C282.6,277.5,282.6,277.5,282.6,277.5c0.3,0,0.5,0.1,0.6,0.2l0.7,0.7c0.2,0.2,0.3,0.6,0.1,0.9c-1.4,2.1-3.3,5-6.1,7.8 c-2.7,2.7-5.6,4.7-7.8,6c-0.3,0.2-0.7,0.2-0.9-0.1l-0.7-0.7c-0.2-0.2-0.2-0.4-0.2-0.6c0-0.2,0.1-0.3,0.3-0.5l0,0l0.1-0.1 c0,0,0,0,0,0c2.6-1.7,5.1-3.7,7.3-5.9c1.4-1.4,2.7-2.9,3.9-4.4c0.8-1,1.5-2,2.2-3.1l0,0C282.2,277.7,282.3,277.6,282.6,277.5z M281.5,277.7c-0.2,0.3-0.4,0.6-0.6,0.9c-0.2,0.4-0.5,0.7-0.7,1.1c-0.2,0.2-0.3,0.4-0.5,0.6c-0.3,0.4-0.6,0.8-1,1.2 c-0.2,0.2-0.3,0.4-0.5,0.6c-0.3,0.4-0.7,0.8-1.1,1.2c-0.1,0.1-0.1,0.1-0.2,0.2c-0.5,0.5-1,1-1.5,1.5c-0.5,0.5-1,1-1.5,1.5 c0,0-0.1,0.1-0.1,0.1c-0.4,0.4-0.8,0.7-1.2,1.1c-0.2,0.1-0.3,0.3-0.5,0.5c-0.4,0.3-0.9,0.7-1.3,1c-0.2,0.1-0.4,0.3-0.6,0.4 c-0.4,0.3-0.9,0.6-1.3,0.9c-0.2,0.1-0.4,0.3-0.6,0.4l-7.3-7.3c0.2,0,0.3-0.1,0.4-0.2c0.3-0.1,0.6-0.2,0.9-0.3 c0.2-0.1,0.5-0.2,0.7-0.3c0.3-0.1,0.7-0.3,1-0.5c0.3-0.1,0.6-0.3,0.8-0.4c0.3-0.2,0.6-0.3,0.9-0.5c0.2-0.1,0.4-0.2,0.6-0.4 c0.4-0.3,0.8-0.6,1.2-0.9c0.1-0.1,0.2-0.2,0.4-0.3c0.4-0.4,0.9-0.7,1.3-1.1c0,0,0,0,0,0c0,0,0,0,0,0c0.4-0.4,0.8-0.8,1.1-1.3 c0.1-0.1,0.2-0.2,0.3-0.4c0.3-0.4,0.6-0.8,0.9-1.2c0.1-0.2,0.2-0.4,0.3-0.5c0.2-0.3,0.4-0.6,0.5-0.9c0.1-0.3,0.3-0.5,0.4-0.8 c0.2-0.3,0.3-0.7,0.5-1c0.1-0.2,0.2-0.5,0.3-0.7c0.1-0.3,0.2-0.6,0.3-0.9c0-0.1,0.1-0.3,0.2-0.4L281.5,277.7z M273.8,269.9 c-0.1,0.2-0.1,0.5-0.2,0.7c-0.1,0.3-0.2,0.5-0.3,0.8c-0.1,0.3-0.2,0.5-0.3,0.8c-0.2,0.4-0.3,0.8-0.5,1.1c-0.1,0.2-0.2,0.5-0.4,0.7 c-0.2,0.3-0.3,0.5-0.5,0.8c-0.1,0.2-0.2,0.4-0.3,0.5c-0.3,0.4-0.6,0.8-0.9,1.2c-0.1,0.1-0.2,0.3-0.3,0.4c-0.3,0.4-0.7,0.8-1.1,1.2 c0,0,0,0,0,0c0,0,0,0,0,0c-0.4,0.4-0.8,0.7-1.2,1.1c-0.1,0.1-0.3,0.2-0.4,0.3c-0.4,0.3-0.8,0.6-1.2,0.9c-0.2,0.1-0.4,0.2-0.5,0.3 c-0.3,0.2-0.5,0.3-0.8,0.5c-0.2,0.1-0.4,0.2-0.7,0.4c-0.4,0.2-0.8,0.4-1.2,0.6c-0.2,0.1-0.5,0.2-0.7,0.3c-0.3,0.1-0.5,0.2-0.8,0.3 c-0.2,0.1-0.5,0.2-0.7,0.2c-3.4,0.9-6.9,0.9-10.3,0c-0.2-0.1-0.5-0.1-0.7-0.2c-0.3-0.1-0.6-0.2-0.8-0.3c-0.2-0.1-0.5-0.2-0.7-0.3 c-0.4-0.2-0.8-0.4-1.2-0.6c-0.2-0.1-0.4-0.2-0.6-0.3c-0.3-0.2-0.6-0.3-0.9-0.5c-0.2-0.1-0.3-0.2-0.5-0.3c-0.4-0.3-0.8-0.6-1.2-0.9 c-0.1-0.1-0.2-0.2-0.4-0.3c-0.4-0.4-0.9-0.7-1.3-1.1c-0.4-0.4-0.8-0.8-1.1-1.3c-0.1-0.1-0.2-0.2-0.3-0.4c-0.3-0.4-0.6-0.8-0.9-1.2 c-0.1-0.2-0.2-0.3-0.3-0.5c-0.2-0.3-0.3-0.6-0.5-0.9c-0.1-0.2-0.2-0.4-0.3-0.6c-0.2-0.4-0.4-0.8-0.6-1.2c-0.1-0.2-0.2-0.5-0.3-0.7 c-0.1-0.3-0.2-0.5-0.3-0.8c-0.1-0.2-0.1-0.5-0.2-0.7c-0.9-3.4-0.9-6.9,0-10.3c0.1-0.2,0.1-0.5,0.2-0.7c0.1-0.3,0.2-0.6,0.3-0.8 c0.1-0.2,0.2-0.4,0.3-0.7c0.2-0.4,0.4-0.8,0.6-1.2c0.1-0.2,0.2-0.4,0.3-0.6c0.2-0.3,0.3-0.6,0.5-0.9c0.1-0.2,0.2-0.3,0.3-0.5 c0.3-0.4,0.6-0.8,0.9-1.3c0.1-0.1,0.2-0.2,0.3-0.4c0.4-0.4,0.7-0.9,1.1-1.3c0,0,0,0,0,0c0.4-0.4,0.8-0.8,1.3-1.1 c0.1-0.1,0.2-0.2,0.4-0.3c0.4-0.3,0.8-0.6,1.2-0.9c0.2-0.1,0.3-0.2,0.5-0.3c0.3-0.2,0.6-0.3,0.9-0.5c0.2-0.1,0.4-0.2,0.6-0.3 c0.4-0.2,0.8-0.4,1.2-0.6c0.2-0.1,0.5-0.2,0.7-0.3c0.3-0.1,0.5-0.2,0.8-0.3c0.2-0.1,0.5-0.1,0.7-0.2c3.4-0.9,6.9-0.9,10.3,0 c0.3,0.1,0.5,0.2,0.8,0.2c0.2,0.1,0.5,0.2,0.7,0.3c0.3,0.1,0.6,0.2,0.9,0.3c0.4,0.2,0.7,0.3,1.1,0.5c0.2,0.1,0.5,0.2,0.7,0.4 c0.3,0.1,0.5,0.3,0.8,0.5c0.2,0.1,0.4,0.2,0.6,0.3c0.4,0.3,0.8,0.6,1.2,0.9c0.1,0.1,0.3,0.2,0.4,0.3c0.4,0.3,0.8,0.7,1.2,1.1 c0,0,0,0,0.1,0.1c0,0,0,0,0.1,0.1c0.4,0.4,0.7,0.8,1.1,1.2c0.1,0.1,0.2,0.3,0.3,0.4c0.3,0.4,0.6,0.8,0.9,1.2 c0.1,0.2,0.2,0.4,0.3,0.6c0.2,0.3,0.3,0.5,0.5,0.8c0.1,0.2,0.3,0.5,0.4,0.7c0.2,0.3,0.3,0.7,0.5,1.1c0.1,0.3,0.2,0.6,0.3,0.9 c0.1,0.2,0.2,0.5,0.3,0.7c0.1,0.3,0.2,0.5,0.2,0.8C274.7,263,274.7,266.5,273.8,269.9z M274,258.7c-0.1-0.3-0.2-0.6-0.3-0.9 c-0.1-0.3-0.2-0.5-0.3-0.7c-0.1-0.3-0.3-0.6-0.4-0.9c-0.1-0.3-0.3-0.6-0.5-0.9c-0.2-0.3-0.3-0.6-0.5-0.8c-0.1-0.2-0.2-0.4-0.4-0.6 c-0.3-0.4-0.6-0.8-0.9-1.2c-0.1-0.1-0.2-0.3-0.3-0.4c-0.4-0.4-0.7-0.8-1.1-1.2c0,0,0,0,0-0.1c0,0,0,0-0.1,0 c-0.4-0.4-0.8-0.7-1.2-1.1c-0.1-0.1-0.3-0.2-0.4-0.3c-0.4-0.3-0.8-0.6-1.2-0.9c-0.2-0.1-0.4-0.2-0.6-0.4c-0.3-0.2-0.5-0.3-0.8-0.5 c-0.3-0.2-0.6-0.3-1-0.5c-0.3-0.1-0.6-0.3-0.9-0.4c-0.3-0.1-0.5-0.2-0.8-0.3c-0.3-0.1-0.5-0.2-0.8-0.3c-0.2-0.1-0.4-0.1-0.6-0.2 l8.1-8.1c0.5,0.3,1,0.7,1.5,1c0.1,0.1,0.3,0.2,0.4,0.3c0.6,0.4,1.1,0.8,1.7,1.3c0.1,0.1,0.1,0.1,0.2,0.2c1.2,1,2.4,2.1,3.5,3.2 c0.5,0.6,1.1,1.1,1.6,1.7c0.1,0.1,0.1,0.1,0.2,0.2c0.5,0.5,0.9,1.1,1.4,1.6c0.1,0.1,0.2,0.3,0.3,0.4c0.4,0.5,0.7,0.9,1.1,1.4 c0.1,0.2,0.2,0.4,0.4,0.5c0.3,0.4,0.6,0.9,0.9,1.3l-8.1,8.1C274.2,259,274.1,258.9,274,258.7z M284.7,250.3l-0.7,0.7 c-0.2,0.2-0.4,0.2-0.6,0.2c-0.2,0-0.3-0.1-0.4-0.2l0,0l-0.1-0.1c-1.7-2.6-3.7-5.1-5.9-7.3c-2.3-2.3-4.8-4.3-7.4-6l0,0 c-0.2-0.1-0.3-0.3-0.3-0.5c0-0.2,0.1-0.4,0.2-0.6l0.7-0.7c0.1-0.1,0.3-0.2,0.5-0.2c0.1,0,0.3,0,0.4,0.1c2.1,1.4,5,3.3,7.8,6.1 c2.7,2.7,4.7,5.6,6,7.8C285,249.6,284.9,250,284.7,250.3z M97.9,92.9H46.5H36H10.7c-1.8,0-3.2,1.4-3.2,3.2v66.1 c0,1.8,1.4,3.2,3.2,3.2H36h10.5h51.4c1.8,0,3.2-1.4,3.2-3.2V96.1C101.1,94.3,99.7,92.9,97.9,92.9z M10.7,164.9 c-1.5,0-2.7-1.2-2.7-2.7V96.1c0-1.5,1.2-2.7,2.7-2.7H36v71.5H10.7z M36.5,164.9V93.4h10v71.5H36.5z M100.6,162.2 c0,1.5-1.2,2.7-2.7,2.7H47V93.4h50.9c1.5,0,2.7,1.2,2.7,2.7V162.2z M30.3,96H15.6c-2,0-3.7,1.7-3.7,3.7V125c0,2,1.7,3.7,3.7,3.7 h14.7c2,0,3.7-1.7,3.7-3.7V99.7C34,97.6,32.3,96,30.3,96z M33.5,125c0,1.8-1.4,3.2-3.2,3.2H15.6c-1.8,0-3.2-1.4-3.2-3.2V99.7 c0-1.8,1.4-3.2,3.2-3.2h14.7c1.8,0,3.2,1.4,3.2,3.2V125z M30.3,129.6H15.6c-2,0-3.7,1.7-3.7,3.7v25.3c0,2,1.7,3.7,3.7,3.7h14.7 c2,0,3.7-1.7,3.7-3.7v-25.3C34,131.3,32.3,129.6,30.3,129.6z M33.5,158.6c0,1.8-1.4,3.2-3.2,3.2H15.6c-1.8,0-3.2-1.4-3.2-3.2v-25.3 c0-1.8,1.4-3.2,3.2-3.2h14.7c1.8,0,3.2,1.4,3.2,3.2V158.6z M13.6,324.4v-18.7h0.5v18.7H13.6z M17.1,324.4v-18.7h0.5v18.7H17.1z M20.7,306l0.5-0.1l3.7,18.3l-0.5,0.1L20.7,306z M45.6,305.7l-2.2,18.6l-0.5-0.1l2.2-18.6L45.6,305.7z M49,306.1l-2.2,18.6l-0.5-0.1 l2.2-18.6L49,306.1z M54.2,324.6l-0.5,0l-1.6-18.6l0.5,0L54.2,324.6z M78.8,305.8l-2.2,18.6l-0.5-0.1l2.2-18.6L78.8,305.8z M82.5,306v18.7H82V306H82.5z M28.5,305.7l2,18.6l-0.5,0.1l-2-18.6L28.5,305.7z M33,305.7v18.7h-0.5v-18.7H33z M56.8,305.9l3.7,18.3 l-0.5,0.1L56.3,306L56.8,305.9z M64.2,305.7l2,18.6l-0.5,0.1l-2-18.6L64.2,305.7z M68.2,305.7h0.5v18.7h-0.5V305.7z M72.4,305.7h0.5 v18.7h-0.5V305.7z M40.4,324.2l-0.5,0.1L36.2,306l0.5-0.1L40.4,324.2z M29.7,70.3H12.2v20.4h17.4V70.3z M29.2,90.2H12.7V70.8h16.4 V90.2z M12.2,188h17.4v-20.4H12.2V188z M12.7,168.1h16.4v19.4H12.7V168.1z M150.5,97.1h-23.8v64h23.8V97.1z M150,160.7h-22.8v-63 H150V160.7z M140.5,100.4h-3.9v57.5h3.9V100.4z M140,157.4h-2.9v-56.5h2.9V157.4z M32.4,381.9c-2,0-3.6,1.6-3.6,3.6 c0,1.6,1,2.9,2.5,3.4v10.7h2.2v-10.7c1.5-0.5,2.5-1.8,2.5-3.4C35.9,383.5,34.3,381.9,32.4,381.9z M33,399.1h-1.2V389v-3.4 c0-0.3,0.3-0.6,0.6-0.6c0.3,0,0.6,0.3,0.6,0.6v3.4V399.1z M33.5,388.4v-2.7c0-0.6-0.5-1.1-1.1-1.1s-1.1,0.5-1.1,1.1v2.7 c-1.2-0.4-2-1.6-2-2.9c0-1.7,1.4-3.1,3.1-3.1s3.1,1.4,3.1,3.1C35.4,386.8,34.6,387.9,33.5,388.4z M108.6,399.7h42.9v-21.3h-42.9 V399.7z M109.1,378.9h41.9v20.3h-41.9V378.9z M133.2,395.8c-0.6,0-1,0.4-1,1s0.4,1,1,1s1-0.4,1-1S133.8,395.8,133.2,395.8z M133.2,397.3c-0.3,0-0.5-0.2-0.5-0.5s0.2-0.5,0.5-0.5s0.5,0.2,0.5,0.5S133.5,397.3,133.2,397.3z M126.8,395.8c-0.6,0-1,0.4-1,1 s0.4,1,1,1s1-0.4,1-1S127.3,395.8,126.8,395.8z M126.8,397.3c-0.3,0-0.5-0.2-0.5-0.5s0.2-0.5,0.5-0.5s0.5,0.2,0.5,0.5 S127,397.3,126.8,397.3z M129.8,380.7c-6.1,0-11,3.2-11,7.2c0,3.8,4.7,7,10.5,7.2v0.6c-0.3,0.2-0.5,0.6-0.5,1c0,0.7,0.6,1.3,1.3,1.3 c0.7,0,1.3-0.6,1.3-1.3c0-0.4-0.2-0.8-0.5-1V395c5.6-0.3,10-3.4,10-7.1C140.7,383.9,135.8,380.7,129.8,380.7z M130.8,394.5v-1.3 c0-0.4-0.3-0.8-0.8-0.8s-0.8,0.3-0.8,0.8v1.3c-5.5-0.2-10-3.1-10-6.7c0-3.7,4.7-6.7,10.5-6.7s10.5,3,10.5,6.7 C140.2,391.3,136.1,394.2,130.8,394.5z M91.5,391h-1.1c1-1.8,1.6-4,1.6-6.7c0-8.6-4.1-13.9-8-13.9s-8,5.3-8,13.9 c0,2.6,0.5,4.9,1.6,6.7h-1.1c-1.8,0-3.2,1.4-3.2,3.2v4c0,0.8,0.6,1.4,1.4,1.4h18.5c0.8,0,1.4-0.6,1.4-1.4v-4 C94.7,392.5,93.2,391,91.5,391z M76.6,384.4c0-6.5,3-13.4,7.5-13.4s7.5,6.9,7.5,13.4c0,2.7-0.6,4.9-1.6,6.7H78.2 C77.1,389.3,76.6,387,76.6,384.4z M94.2,398.3c0,0.5-0.4,0.9-0.9,0.9H74.8c-0.5,0-0.9-0.4-0.9-0.9v-4c0-1.5,1.2-2.7,2.7-2.7H78h12.2 h1.3c1.5,0,2.7,1.2,2.7,2.7V398.3z M84.1,372.4c-3.5,0-5.8,5-5.8,9.8c0,3.9,1.9,5.8,5.8,5.8c3.9,0,5.8-1.9,5.8-5.8 C89.9,377.4,87.5,372.4,84.1,372.4z M84.1,387.4c-3.6,0-5.3-1.7-5.3-5.3c0-4.4,2.2-9.3,5.3-9.3c3.1,0,5.3,4.9,5.3,9.3 C89.4,385.8,87.7,387.4,84.1,387.4z M183.9,17.4c3.2,0,5.8-2.6,5.8-5.8s-2.6-5.8-5.8-5.8s-5.8,2.6-5.8,5.8S180.8,17.4,183.9,17.4z M183.9,6.3c2.9,0,5.3,2.4,5.3,5.3s-2.4,5.3-5.3,5.3c-2.9,0-5.3-2.4-5.3-5.3S181,6.3,183.9,6.3z M180.6,14.2 c0.1,0.1,0.1,0.2,0.1,0.3c0.1,0.2,0.1,0.4,0.3,0.6c0.2,0.2,0.4,0.2,0.7,0.2c0.1,0,0.3,0,0.3,0.1c0.1,0,0.2,0.1,0.3,0.2 c0.1,0.2,0.3,0.3,0.6,0.4c0.2,0.1,0.5,0,0.7-0.1c0.2-0.1,0.4-0.1,0.7,0c0.2,0.1,0.3,0.1,0.5,0.1c0,0,0.1,0,0.1,0 c0.2-0.1,0.4-0.2,0.6-0.4c0.1-0.1,0.2-0.2,0.3-0.2c0.1,0,0.2,0,0.3-0.1c0.2,0,0.5,0,0.7-0.2c0.2-0.2,0.3-0.4,0.3-0.6 c0-0.1,0.1-0.3,0.1-0.3c0.1-0.1,0.2-0.1,0.3-0.2c0.2-0.1,0.4-0.2,0.5-0.5c0.1-0.2,0.1-0.5,0-0.7c0-0.1,0-0.3,0-0.4 c0-0.1,0.1-0.2,0.2-0.3c0.1-0.2,0.3-0.4,0.3-0.6c0-0.3-0.1-0.5-0.3-0.6c-0.1-0.1-0.1-0.2-0.2-0.3c0-0.1,0-0.2,0-0.4 c0-0.2,0.1-0.5,0-0.7c-0.1-0.2-0.3-0.3-0.5-0.5c-0.1-0.1-0.2-0.1-0.3-0.2c-0.1-0.1-0.1-0.2-0.1-0.3C187,8.4,187,8.2,186.8,8 c-0.2-0.2-0.4-0.2-0.7-0.2c-0.1,0-0.3,0-0.3-0.1c-0.1,0-0.2-0.1-0.3-0.2c-0.1-0.2-0.3-0.3-0.6-0.4c-0.2-0.1-0.5,0-0.7,0.1 c-0.1,0-0.3,0.1-0.3,0.1c-0.1,0-0.2-0.1-0.3-0.1c-0.2-0.1-0.4-0.2-0.7-0.1c-0.2,0.1-0.4,0.2-0.6,0.4c-0.1,0.1-0.2,0.2-0.3,0.2 c-0.1,0-0.2,0-0.3,0.1c-0.2,0-0.5,0-0.7,0.2c-0.2,0.2-0.3,0.4-0.3,0.6c0,0.1-0.1,0.3-0.1,0.3s-0.2,0.1-0.3,0.2 c-0.2,0.1-0.4,0.2-0.5,0.5c-0.1,0.2-0.1,0.5,0,0.7c0,0.1,0,0.3,0,0.4c0,0.1-0.1,0.2-0.2,0.3c-0.1,0.2-0.3,0.4-0.3,0.6 c0,0.3,0.1,0.5,0.3,0.6c0.1,0.1,0.1,0.2,0.2,0.3c0,0.1,0,0.2,0,0.4c0,0.2-0.1,0.5,0,0.7c0.1,0.2,0.3,0.3,0.5,0.5 C180.5,14.1,180.6,14.2,180.6,14.2z M180.3,13c0-0.2,0.1-0.4,0-0.5c0-0.2-0.1-0.3-0.2-0.5c-0.1-0.1-0.2-0.3-0.2-0.4 c0-0.1,0.1-0.2,0.2-0.4c0.1-0.1,0.2-0.3,0.2-0.5c0-0.2,0-0.4,0-0.5c0-0.1,0-0.3,0-0.4c0-0.1,0.2-0.2,0.3-0.2 c0.1-0.1,0.3-0.2,0.4-0.3s0.2-0.3,0.2-0.5c0-0.1,0.1-0.3,0.2-0.4c0.1-0.1,0.2-0.1,0.4-0.1c0.2,0,0.4,0,0.5-0.1 c0.2-0.1,0.3-0.2,0.4-0.3c0.1-0.1,0.2-0.2,0.3-0.3c0,0,0,0,0,0c0.1,0,0.2,0,0.3,0.1c0.2,0.1,0.3,0.1,0.5,0.1s0.4-0.1,0.5-0.1 c0.1-0.1,0.3-0.1,0.4-0.1c0.1,0,0.2,0.1,0.3,0.3c0.1,0.1,0.2,0.3,0.4,0.3c0.2,0.1,0.4,0.1,0.5,0.1c0.2,0,0.3,0,0.4,0.1 c0.1,0.1,0.1,0.2,0.2,0.4c0,0.2,0.1,0.3,0.2,0.5c0.1,0.1,0.3,0.2,0.4,0.3c0.1,0.1,0.3,0.2,0.3,0.2c0,0.1,0,0.2,0,0.4 c0,0.2-0.1,0.4,0,0.5c0,0.2,0.1,0.3,0.2,0.5c0.1,0.1,0.2,0.3,0.2,0.4c0,0.1-0.1,0.2-0.2,0.4c-0.1,0.1-0.2,0.3-0.2,0.5 c0,0.2,0,0.4,0,0.5c0,0.1,0,0.3,0,0.4c0,0.1-0.2,0.2-0.3,0.2c-0.1,0.1-0.3,0.2-0.4,0.3c-0.1,0.1-0.2,0.3-0.2,0.5 c0,0.1-0.1,0.3-0.2,0.4c-0.1,0.1-0.2,0.1-0.4,0.1c-0.2,0-0.4,0-0.5,0.1c-0.2,0.1-0.3,0.2-0.4,0.3c-0.1,0.1-0.2,0.2-0.3,0.3 c-0.1,0-0.2,0-0.4-0.1c-0.2-0.1-0.3-0.1-0.5-0.1s-0.4,0.1-0.5,0.1c-0.1,0.1-0.3,0.1-0.4,0.1c-0.1,0-0.2-0.1-0.3-0.3 c-0.1-0.1-0.2-0.3-0.4-0.3c-0.2-0.1-0.4-0.1-0.5-0.1c-0.2,0-0.3,0-0.4-0.1c-0.1-0.1-0.1-0.2-0.2-0.4c0-0.2-0.1-0.3-0.2-0.5 c-0.1-0.1-0.3-0.2-0.4-0.3c-0.1-0.1-0.3-0.2-0.3-0.2C180.2,13.3,180.3,13.1,180.3,13z M197.2,17.4c3.2,0,5.8-2.6,5.8-5.8 s-2.6-5.8-5.8-5.8s-5.8,2.6-5.8,5.8S194,17.4,197.2,17.4z M197.2,6.3c2.9,0,5.3,2.4,5.3,5.3s-2.4,5.3-5.3,5.3 c-2.9,0-5.3-2.4-5.3-5.3S194.3,6.3,197.2,6.3z M193.9,14.2c0.1,0.1,0.1,0.2,0.1,0.3c0.1,0.2,0.1,0.4,0.3,0.6 c0.2,0.2,0.4,0.2,0.7,0.2c0.1,0,0.3,0,0.3,0.1c0.1,0,0.2,0.1,0.3,0.2c0.1,0.2,0.3,0.3,0.6,0.4c0.2,0.1,0.5,0,0.7-0.1 c0.2-0.1,0.4-0.1,0.7,0c0.2,0.1,0.3,0.1,0.5,0.1c0,0,0.1,0,0.1,0c0.2-0.1,0.4-0.2,0.6-0.4c0.1-0.1,0.2-0.2,0.3-0.2 c0.1,0,0.2,0,0.3-0.1c0.2,0,0.5,0,0.7-0.2c0.2-0.2,0.3-0.4,0.3-0.6c0-0.1,0.1-0.3,0.1-0.3c0.1-0.1,0.2-0.1,0.3-0.2 c0.2-0.1,0.4-0.2,0.5-0.5c0.1-0.2,0.1-0.5,0-0.7c0-0.1,0-0.3,0-0.4c0-0.1,0.1-0.2,0.2-0.3c0.1-0.2,0.3-0.4,0.3-0.6 c0-0.3-0.1-0.5-0.3-0.6c-0.1-0.1-0.1-0.2-0.2-0.3c0-0.1,0-0.2,0-0.4c0-0.2,0.1-0.5,0-0.7c-0.1-0.2-0.3-0.3-0.5-0.5 c-0.1-0.1-0.2-0.1-0.3-0.2c-0.1-0.1-0.1-0.2-0.1-0.3c-0.1-0.2-0.1-0.4-0.3-0.6c-0.2-0.2-0.4-0.2-0.7-0.2c-0.1,0-0.3,0-0.3-0.1 c-0.1,0-0.2-0.1-0.3-0.2c-0.1-0.2-0.3-0.3-0.6-0.4c-0.2-0.1-0.5,0-0.7,0.1c-0.1,0-0.3,0.1-0.3,0.1c-0.1,0-0.2-0.1-0.3-0.1 c-0.2-0.1-0.4-0.2-0.7-0.1c-0.2,0.1-0.4,0.2-0.6,0.4c-0.1,0.1-0.2,0.2-0.3,0.2c-0.1,0-0.2,0-0.3,0.1c-0.2,0-0.5,0-0.7,0.2 c-0.2,0.2-0.3,0.4-0.3,0.6c0,0.1-0.1,0.3-0.1,0.3c-0.1,0.1-0.2,0.1-0.3,0.2c-0.2,0.1-0.4,0.2-0.5,0.5c-0.1,0.2-0.1,0.5,0,0.7 c0,0.1,0,0.3,0,0.4c0,0.1-0.1,0.2-0.2,0.3c-0.1,0.2-0.3,0.4-0.3,0.6s0.1,0.5,0.3,0.6c0.1,0.1,0.1,0.2,0.2,0.3c0,0.1,0,0.2,0,0.4 c0,0.2-0.1,0.5,0,0.7c0.1,0.2,0.3,0.3,0.5,0.5C193.7,14.1,193.8,14.2,193.9,14.2z M193.6,13c0-0.2,0.1-0.4,0-0.5 c0-0.2-0.1-0.3-0.2-0.5c-0.1-0.1-0.2-0.3-0.2-0.4c0-0.1,0.1-0.2,0.2-0.4c0.1-0.1,0.2-0.3,0.2-0.5c0-0.2,0-0.4,0-0.5 c0-0.1,0-0.3,0-0.4c0-0.1,0.2-0.2,0.3-0.2c0.1-0.1,0.3-0.2,0.4-0.3c0.1-0.1,0.2-0.3,0.2-0.5c0-0.1,0.1-0.3,0.2-0.4 c0.1-0.1,0.2-0.1,0.4-0.1c0.2,0,0.4,0,0.5-0.1c0.2-0.1,0.3-0.2,0.4-0.3c0.1-0.1,0.2-0.2,0.3-0.3c0,0,0,0,0,0c0.1,0,0.2,0,0.3,0.1 c0.2,0.1,0.3,0.1,0.5,0.1s0.4-0.1,0.5-0.1c0.1-0.1,0.3-0.1,0.4-0.1c0.1,0,0.2,0.1,0.3,0.3c0.1,0.1,0.2,0.3,0.4,0.3 c0.2,0.1,0.4,0.1,0.5,0.1c0.2,0,0.3,0,0.4,0.1c0.1,0.1,0.1,0.2,0.2,0.4c0,0.2,0.1,0.3,0.2,0.5c0.1,0.1,0.3,0.2,0.4,0.3 c0.1,0.1,0.3,0.2,0.3,0.2c0,0.1,0,0.2,0,0.4c0,0.2-0.1,0.4,0,0.5c0,0.2,0.1,0.3,0.2,0.5c0.1,0.1,0.2,0.3,0.2,0.4 c0,0.1-0.1,0.2-0.2,0.4c-0.1,0.1-0.2,0.3-0.2,0.5c0,0.2,0,0.4,0,0.5c0,0.1,0,0.3,0,0.4c0,0.1-0.2,0.2-0.3,0.2 c-0.1,0.1-0.3,0.2-0.4,0.3c-0.1,0.1-0.2,0.3-0.2,0.5c0,0.1-0.1,0.3-0.2,0.4c-0.1,0.1-0.2,0.1-0.4,0.1c-0.2,0-0.4,0-0.5,0.1 c-0.2,0.1-0.3,0.2-0.4,0.3c-0.1,0.1-0.2,0.2-0.3,0.3c-0.1,0-0.2,0-0.4-0.1c-0.2-0.1-0.3-0.1-0.5-0.1s-0.4,0.1-0.5,0.1 c-0.1,0.1-0.3,0.1-0.4,0.1c-0.1,0-0.2-0.1-0.3-0.3c-0.1-0.1-0.2-0.3-0.4-0.3c-0.2-0.1-0.4-0.1-0.5-0.1c-0.2,0-0.3,0-0.4-0.1 c-0.1-0.1-0.1-0.2-0.2-0.4c0-0.2-0.1-0.3-0.2-0.5c-0.1-0.1-0.3-0.2-0.4-0.3c-0.1-0.1-0.3-0.2-0.3-0.2 C193.5,13.3,193.5,13.1,193.6,13z M291.5,5.8c-3.2,0-5.8,2.6-5.8,5.8s2.6,5.8,5.8,5.8s5.8-2.6,5.8-5.8S294.6,5.8,291.5,5.8z M291.5,16.9c-2.9,0-5.3-2.4-5.3-5.3s2.4-5.3,5.3-5.3s5.3,2.4,5.3,5.3S294.4,16.9,291.5,16.9z M294.8,9c-0.1-0.1-0.1-0.2-0.1-0.3 c-0.1-0.2-0.1-0.4-0.3-0.6s-0.4-0.2-0.7-0.2c-0.1,0-0.3,0-0.3-0.1c-0.1,0-0.2-0.1-0.3-0.2c-0.1-0.2-0.3-0.3-0.6-0.4 c-0.2-0.1-0.5,0-0.7,0.1c-0.2,0.1-0.4,0.1-0.7,0c-0.2-0.1-0.4-0.2-0.7-0.1c-0.2,0.1-0.4,0.2-0.6,0.4c-0.1,0.1-0.2,0.2-0.3,0.2 c-0.1,0-0.2,0-0.3,0.1c-0.2,0-0.5,0-0.7,0.2c-0.2,0.2-0.3,0.4-0.3,0.6c0,0.1-0.1,0.3-0.1,0.3c-0.1,0.1-0.2,0.1-0.3,0.2 c-0.2,0.1-0.4,0.2-0.5,0.5c-0.1,0.2-0.1,0.5,0,0.7c0,0.1,0,0.3,0,0.4c0,0.1-0.1,0.2-0.2,0.3c-0.1,0.2-0.3,0.4-0.3,0.6 s0.1,0.5,0.3,0.6c0.1,0.1,0.1,0.2,0.2,0.3c0,0.1,0,0.2,0,0.4c0,0.2-0.1,0.5,0,0.7c0.1,0.2,0.3,0.3,0.5,0.5c0.1,0.1,0.2,0.1,0.3,0.2 c0.1,0.1,0.1,0.2,0.1,0.3c0.1,0.2,0.1,0.4,0.3,0.6c0.2,0.2,0.4,0.2,0.7,0.2c0.1,0,0.3,0,0.3,0.1c0.1,0,0.2,0.1,0.3,0.2 c0.1,0.2,0.3,0.3,0.6,0.4c0.2,0.1,0.5,0,0.7-0.1c0.2-0.1,0.4-0.1,0.7,0c0.2,0.1,0.3,0.1,0.5,0.1c0,0,0.1,0,0.1,0 c0.2-0.1,0.4-0.2,0.6-0.4c0.1-0.1,0.2-0.2,0.3-0.2c0.1,0,0.2,0,0.3-0.1c0.2,0,0.5,0,0.7-0.2c0.2-0.2,0.3-0.4,0.3-0.6 c0-0.1,0.1-0.3,0.1-0.3c0.1-0.1,0.2-0.1,0.3-0.2c0.2-0.1,0.4-0.2,0.5-0.5c0.1-0.2,0.1-0.5,0-0.7c0-0.1,0-0.3,0-0.4 c0-0.1,0.1-0.2,0.2-0.3c0.1-0.2,0.3-0.4,0.3-0.6c0-0.3-0.1-0.5-0.3-0.6c-0.1-0.1-0.1-0.2-0.2-0.3c0-0.1,0-0.2,0-0.4 c0-0.2,0.1-0.5,0-0.7c-0.1-0.2-0.3-0.3-0.5-0.5C294.9,9.1,294.8,9,294.8,9z M295.1,10.2c0,0.2-0.1,0.4,0,0.5c0,0.2,0.1,0.3,0.2,0.5 c0.1,0.1,0.2,0.3,0.2,0.4c0,0.1-0.1,0.2-0.2,0.4c-0.1,0.1-0.2,0.3-0.2,0.5c0,0.2,0,0.4,0,0.5c0,0.1,0,0.3,0,0.4 c0,0.1-0.2,0.2-0.3,0.2c-0.1,0.1-0.3,0.2-0.4,0.3c-0.1,0.1-0.2,0.3-0.2,0.5c0,0.1-0.1,0.3-0.2,0.4c-0.1,0.1-0.2,0.1-0.4,0.1 c-0.2,0-0.4,0-0.5,0.1c-0.2,0.1-0.3,0.2-0.4,0.3c-0.1,0.1-0.2,0.2-0.3,0.3c-0.1,0-0.2,0-0.4-0.1c-0.2-0.1-0.3-0.1-0.5-0.1 s-0.4,0.1-0.5,0.1c-0.1,0.1-0.3,0.1-0.4,0.1c-0.1,0-0.2-0.1-0.3-0.3c-0.1-0.1-0.2-0.3-0.4-0.3c-0.2-0.1-0.4-0.1-0.5-0.1 c-0.2,0-0.3,0-0.4-0.1c-0.1-0.1-0.1-0.2-0.2-0.4c0-0.2-0.1-0.3-0.2-0.5c-0.1-0.1-0.3-0.2-0.4-0.3c-0.1-0.1-0.3-0.2-0.3-0.2 c0-0.1,0-0.2,0-0.4c0-0.2,0.1-0.4,0-0.5c0-0.2-0.1-0.3-0.2-0.5c-0.1-0.1-0.2-0.3-0.2-0.4c0-0.1,0.1-0.2,0.2-0.4 c0.1-0.1,0.2-0.3,0.2-0.5c0-0.2,0-0.4,0-0.5c0-0.1,0-0.3,0-0.4c0-0.1,0.2-0.2,0.3-0.2c0.1-0.1,0.3-0.2,0.4-0.3 c0.1-0.1,0.2-0.3,0.2-0.5c0-0.1,0.1-0.3,0.2-0.4c0.1-0.1,0.2-0.1,0.4-0.1c0.2,0,0.4,0,0.5-0.1c0.2-0.1,0.3-0.2,0.4-0.3 c0.1-0.1,0.2-0.2,0.3-0.3c0,0,0,0,0,0c0.1,0,0.2,0,0.3,0.1c0.2,0.1,0.3,0.1,0.5,0.1s0.4-0.1,0.5-0.1c0.1-0.1,0.3-0.1,0.4-0.1 c0.1,0,0.2,0.1,0.3,0.3c0.1,0.1,0.2,0.3,0.4,0.3c0.2,0.1,0.4,0.1,0.5,0.1c0.2,0,0.3,0,0.4,0.1c0.1,0.1,0.1,0.2,0.2,0.4 c0,0.2,0.1,0.3,0.2,0.5c0.1,0.1,0.3,0.2,0.4,0.3c0.1,0.1,0.3,0.2,0.3,0.2C295.1,9.9,295.1,10.1,295.1,10.2z M10.9,240.2l18.3-3.7 l0.1,0.5L11,240.7L10.9,240.2z M29.5,261.3L11,259.1l0.1-0.5l18.6,2.2L29.5,261.3z M10.6,262.1l18.6,2.2l-0.1,0.5l-18.6-2.2 L10.6,262.1z M10.5,269.4l18.6-1.6l0,0.5l-18.6,1.6L10.5,269.4z M29.4,294.5l-18.6-2.2l0.1-0.5l18.6,2.2L29.4,294.5z M10.5,297.7 h18.7v0.5H10.5V297.7z M10.8,245.8l18.6-2l0.1,0.5l-18.6,2L10.8,245.8z M10.8,248.3h18.7v0.5H10.8V248.3z M10.9,275.8l18.3-3.7 l0.1,0.5L11,276.3L10.9,275.8z M10.8,281.4l18.6-2l0.1,0.5l-18.6,2L10.8,281.4z M10.8,283.9h18.7v0.5H10.8V283.9z M10.8,288.1h18.7 v0.5H10.8V288.1z M11,256.1l-0.1-0.5l18.3-3.7l0.1,0.5L11,256.1z M235.3,376.3H216c-0.6,0-1.2,0.5-1.2,1.2v13c0,0.6,0.5,1.2,1.2,1.2 h8.8v0.6c-0.3,0.3-0.5,0.6-0.5,1.1c0,0.8,0.6,1.4,1.4,1.4s1.4-0.6,1.4-1.4c0-0.4-0.2-0.8-0.5-1.1v-0.6h8.8c0.6,0,1.2-0.5,1.2-1.2 v-13C236.5,376.8,236,376.3,235.3,376.3z M236,390.4c0,0.4-0.3,0.7-0.7,0.7h-8.8v-2.4c0-0.4-0.3-0.7-0.7-0.7h-0.2 c-0.4,0-0.7,0.3-0.7,0.7v2.4H216c-0.4,0-0.7-0.3-0.7-0.7v-13c0-0.4,0.3-0.7,0.7-0.7h19.3c0.4,0,0.7,0.3,0.7,0.7V390.4z" style="fill: rgb(245, 239, 230);"/></g><g id="__id3_shulcfvcy7"><path d="M346.4,60.7h-42.4V42.6h-0.9V0h-131v42.6H171v18.2h-51v0h-3h-0.4H45.3h-0.4h-3v0H0v344.8h289v0h2v-6h0 c0-3.8,0.8-13.5,8.7-21.8c7.9-8.4,17.8-9.9,21.7-10.1v31.9h0v6h2v0h23.2V60.7z M172.6,0.4h130.3v42.2h-3v-39H175.3v39h-2.8V0.4z M175.7,42.6V3.9h123.7v38.7h-1.3v18.2H282v0h-2v2.9h-37.3v-1.8H195v-0.5h0.1v-0.4H195v-0.2h-2v0h-16V42.6H175.7z M281.6,61.1v5.2 h-1.2v-5.2H281.6z M242.3,63.6h-9.8H195v-1.5h47.3V63.6z M232.9,63.9h9.8H280v1.4h-47.1V63.9z M194.6,61.1v5.2h-1.2v-5.2H194.6z M137.2,231.6L137.2,231.6l-1.2,0v-30.3h-1.7v0.2l0-0.2c-3.7,0.2-13.1,1.6-20.7,9.6c-7.3,7.8-8.2,16.9-8.3,20.7h-1.1v0H90.8h-9.4h-1 v0h-1.4v2.8h-1.5v30.1c-3.7-0.2-13-1.6-20.4-9.5c-7.4-7.8-8.2-17-8.2-20.6v-2.8h-1.4v0H30.9H6.1V66.7H42v0h3h0.4h71.3h0.4h3v0h31.4 v164.9H137.2z M137,232v2.2h-0.9V232H137z M105.3,232v2.2h-0.9V232H105.3z M105.6,298.2c0,3.7,0.9,12.9,8.3,20.7 c7.6,8.1,17,9.4,20.7,9.6l0-0.2v0.2h1.7v-30.3h1.4v0h13.6v101.4H60.5v-69.8h30.3v-31.6h13.6v0H105.6z M105.6,297.8h-0.9v-2.3h0.9 V297.8z M136.5,297.8v-2.3h0.9v2.3H136.5z M57.6,399.6v-69.8h2.5v69.8H57.6z M57.2,399.6H6.1v-69.8h51.1V399.6z M87.8,295.2v31.6 H6.1v-92.2h24.8h16.3v0h1.2c0,3.7,0.9,12.9,8.3,20.7c7.6,8.1,17,9.4,20.7,9.6l0-0.2v0.2h1.7v-30.3h1.4v0h0.9h6.4V295.2z M48.4,234.3 h-0.9V232h0.9V234.3z M79.3,234.3V232h0.9v2.3H79.3z M45.3,63.1h71.3v1.1H45.3V63.1z M116.7,64.6v1.6H45.3v-1.6H116.7z M117,61.1 h2.8v5.2H117v-1.6v-1.9V61.1z M116.7,61.1v1.7H45.3v-1.7H116.7z M42.2,61.1h2.8v1.7v1.9v1.6h-2.8V61.1z M290.6,405.2h-1.2v-5.3h1.2 V405.2z M322.9,405.2h-1.2v-5.3h1.2V405.2z M340.4,399.6h-17.2v0h-0.2v-32.3h-1.8v0.2l0-0.2c-3.9,0.2-13.9,1.7-21.9,10.2 c-7.9,8.4-8.8,18.2-8.8,22.1H289v0H154.3V295.2h-16.6v0h-1.6v2.8h-1.5v30.1c-3.7-0.2-13-1.6-20.4-9.5c-7.4-7.8-8.2-17-8.2-20.6v-2.8 h-1.6v0H90.8v-60.5h13.4v0h1.4v-2.8c0-3.6,0.8-12.8,8.2-20.6c7.5-8,16.8-9.3,20.4-9.5v30.1h1.5v2.8h1.4v0h17.2V66.7H171h22v0h2v-0.1 h0.1v-0.4H195v-2.3h37.5v1.8H280v1h2v0h22h36.4V399.6z M64.4,302.7H66v0.4h-1.5V302.7z M67.4,302.7H69v0.4h-1.6V302.7z M70.5,302.7 H72v0.4h-1.5V302.7z M61.4,302.7H63v0.4h-1.6V302.7z M58.4,302.7H60v0.4h-1.5V302.7z M87.1,303.1h-1.6v-0.4h1.6V303.1z M73.5,302.7 H75v0.4h-1.6V302.7z M79.5,302.7H81v0.4h-1.6V302.7z M76.5,302.7H78v0.4h-1.5V302.7z M55.4,302.7H57v0.4h-1.6V302.7z M84,303.1h-1.5 v-0.4H84V303.1z M40.4,302.7h1.5v0.4h-1.5V302.7z M37.3,302.7h1.6v0.4h-1.6V302.7z M34.3,302.7h1.5v0.4h-1.5V302.7z M43.4,302.7h1.6 v0.4h-1.6V302.7z M52.4,302.7h1.5v0.4h-1.5V302.7z M46.4,302.7h1.5v0.4h-1.5V302.7z M49.4,302.7h1.6v0.4h-1.6V302.7z M16.3,302.7 h1.5v0.4h-1.5V302.7z M25.3,302.7h1.5v0.4h-1.5V302.7z M13.3,302.7h1.5v0.4h-1.5V302.7z M22.3,302.7h1.5v0.4h-1.5V302.7z M10.3,302.7h1.6v0.4h-1.6V302.7z M28.3,302.7h1.5v0.4h-1.5V302.7z M7.2,302.7h1.5v0.4H7.2V302.7z M52.4,315.5h1.5v0.4h-1.5V315.5z M13.3,315.5h1.5v0.4h-1.5V315.5z M55.4,315.5H57v0.4h-1.6V315.5z M49.4,315.5h1.6v0.4h-1.6V315.5z M16.3,315.5h1.5v0.4h-1.5V315.5z M37.3,315.5h1.6v0.4h-1.6V315.5z M7.2,315.5h1.5v0.4H7.2V315.5z M34.3,315.5h1.5v0.4h-1.5V315.5z M58.4,315.5H60v0.4h-1.5V315.5z M46.4,315.5h1.5v0.4h-1.5V315.5z M43.4,315.5h1.6v0.4h-1.6V315.5z M40.4,315.5h1.5v0.4h-1.5V315.5z M10.3,315.5h1.6v0.4h-1.6V315.5 z M31.3,315.5h1.6v0.4h-1.6V315.5z M28.3,315.5h1.5v0.4h-1.5V315.5z M73.5,315.5H75v0.4h-1.6V315.5z M76.5,315.5H78v0.4h-1.5V315.5z M70.5,315.5H72v0.4h-1.5V315.5z M79.5,315.5H81v0.4h-1.6V315.5z M19.3,315.5h1.5v0.4h-1.5V315.5z M87.1,315.9h-1.6v-0.4h1.6V315.9z M84,315.9h-1.5v-0.4H84V315.9z M25.3,315.5h1.5v0.4h-1.5V315.5z M22.3,315.5h1.5v0.4h-1.5V315.5z M61.4,315.5H63v0.4h-1.6V315.5z M64.4,315.5H66v0.4h-1.5V315.5z M67.4,315.5H69v0.4h-1.6V315.5z M32.5,255.1h-0.4v-1.6h0.4V255.1z M32.5,258.2h-0.4v-1.6h0.4V258.2 z M32.5,273.3h-0.4v-1.6h0.4V273.3z M32.5,270.3h-0.4v-1.6h0.4V270.3z M32.5,264.2h-0.4v-1.6h0.4V264.2z M32.5,267.3h-0.4v-1.6h0.4 V267.3z M32.5,261.2h-0.4v-1.6h0.4V261.2z M32.5,236.9h-0.4v-1.6h0.4V236.9z M32.5,240h-0.4v-1.6h0.4V240z M32.5,276.3h-0.4v-1.6 h0.4V276.3z M32.5,246h-0.4v-1.6h0.4V246z M32.5,243h-0.4v-1.6h0.4V243z M32.5,252.1h-0.4v-1.6h0.4V252.1z M32.5,249.1h-0.4v-1.6 h0.4V249.1z M32.5,285.4h-0.4v-1.6h0.4V285.4z M32.5,294.5h-0.4V293h0.4V294.5z M32.5,300.6h-0.4V299h0.4V300.6z M32.5,297.6h-0.4 V296h0.4V297.6z M32.5,279.4h-0.4v-1.6h0.4V279.4z M32.5,282.4h-0.4v-1.6h0.4V282.4z M32.5,291.5h-0.4v-1.6h0.4V291.5z M32.5,288.5 h-0.4v-1.6h0.4V288.5z M32.5,302.7h0.3v0.4h-1.6v-0.4h0.8v-0.6h0.4V302.7z M19.7,285.4h-0.4v-1.6h0.4V285.4z M19.7,282.4h-0.4v-1.6 h0.4V282.4z M19.7,276.3h-0.4v-1.6h0.4V276.3z M19.7,288.5h-0.4v-1.6h0.4V288.5z M19.7,279.4h-0.4v-1.6h0.4V279.4z M19.7,246h-0.4 v-1.6h0.4V246z M19.7,297.6h-0.4V296h0.4V297.6z M19.7,294.5h-0.4V293h0.4V294.5z M19.7,291.5h-0.4v-1.6h0.4V291.5z M19.7,300.6 h-0.4V299h0.4V300.6z M19.7,252.1h-0.4v-1.6h0.4V252.1z M19.7,273.3h-0.4v-1.6h0.4V273.3z M19.7,255.1h-0.4v-1.6h0.4V255.1z M19.7,249.1h-0.4v-1.6h0.4V249.1z M19.7,258.2h-0.4v-1.6h0.4V258.2z M19.7,267.3h-0.4v-1.6h0.4V267.3z M19.7,270.3h-0.4v-1.6h0.4 V270.3z M19.7,264.2h-0.4v-1.6h0.4V264.2z M19.7,261.2h-0.4v-1.6h0.4V261.2z M19.7,243h-0.4v-1.6h0.4V243z M19.7,240h-0.4v-1.6h0.4 V240z M19.7,236.9h-0.4v-1.6h0.4V236.9z M19.7,302.7h1.1v0.4h-1.5v-0.4h0v-0.6h0.4V302.7z M226.5,66.2h1v0.4h-1V66.2z M276.4,66.2h1 v0.4h-1V66.2z M271.4,66.2h1v0.4h-1V66.2z M273.9,66.2h1v0.4h-1V66.2z M278.9,66.2h1v0.4h-1V66.2z M224,66.2h1v0.4h-1V66.2z M221.5,66.2h1v0.4h-1V66.2z M219.1,66.2h1v0.4h-1V66.2z M251.5,66.2h1v0.4h-1V66.2z M259,66.2h1v0.4h-1V66.2z M256.5,66.2h1v0.4h-1 V66.2z M268.9,66.2h1v0.4h-1V66.2z M254,66.2h1v0.4h-1V66.2z M261.5,66.2h1v0.4h-1V66.2z M266.4,66.2h1v0.4h-1V66.2z M263.9,66.2h1 v0.4h-1V66.2z M209.1,66.2h1v0.4h-1V66.2z M236.5,66.2h1v0.4h-1V66.2z M241.5,66.2h1v0.4h-1V66.2z M239,66.2h1v0.4h-1V66.2z M234,66.2h1v0.4h-1V66.2z M244,66.2h1v0.4h-1V66.2z M249,66.2h1v0.4h-1V66.2z M246.5,66.2h1v0.4h-1V66.2z M231.5,66.2h1v0.4h-1 V66.2z M214.1,66.2h1v0.4h-1V66.2z M204.1,66.2h1v0.4h-1V66.2z M206.6,66.2h1v0.4h-1V66.2z M216.6,66.2h1v0.4h-1V66.2z M229,66.2h1 v0.4h-1V66.2z M211.6,66.2h1v0.4h-1V66.2z M199.1,66.2h1v0.4h-1V66.2z M196.6,66.2h1v0.4h-1V66.2z M201.6,66.2h1v0.4h-1V66.2z M252.5,61.3h-1v-0.4h1V61.3z M260,61.3h-1v-0.4h1V61.3z M255,61.3h-1v-0.4h1V61.3z M245,61.3h-1v-0.4h1V61.3z M242.5,61.3h-1v-0.4 h1V61.3z M250,61.3h-1v-0.4h1V61.3z M247.5,61.3h-1v-0.4h1V61.3z M264.9,61.3h-1v-0.4h1V61.3z M279.9,61.3h-1v-0.4h1V61.3z M277.4,61.3h-1v-0.4h1V61.3z M240,61.3h-1v-0.4h1V61.3z M274.9,61.3h-1v-0.4h1V61.3z M262.5,61.3h-1v-0.4h1V61.3z M272.4,61.3h-1 v-0.4h1V61.3z M267.4,61.3h-1v-0.4h1V61.3z M269.9,61.3h-1v-0.4h1V61.3z M257.5,61.3h-1v-0.4h1V61.3z M205.1,61.3h-1v-0.4h1V61.3z M207.6,61.3h-1v-0.4h1V61.3z M210.1,61.3h-1v-0.4h1V61.3z M212.6,61.3h-1v-0.4h1V61.3z M200.1,61.3h-1v-0.4h1V61.3z M197.6,61.3h-1 v-0.4h1V61.3z M202.6,61.3h-1v-0.4h1V61.3z M215.1,61.3h-1v-0.4h1V61.3z M225,61.3h-1v-0.4h1V61.3z M230,61.3h-1v-0.4h1V61.3z M232.5,61.3h-1v-0.4h1V61.3z M235,61.3h-1v-0.4h1V61.3z M227.5,61.3h-1v-0.4h1V61.3z M237.5,61.3h-1v-0.4h1V61.3z M220.1,61.3h-1 v-0.4h1V61.3z M222.5,61.3h-1v-0.4h1V61.3z M217.6,61.3h-1v-0.4h1V61.3z" style="fill: rgb(245, 239, 230);"/></g></svg>